<svg height="194" viewBox="0 0 1176 194" width="1176" xmlns="http://www.w3.org/2000/svg"><g fill="none" fill-rule="evenodd" transform="translate(8 8)"><path d="m0 89.1455356c118.164028 37.7226734 281.931551 106.8624704 491.003456 45.1833704 258.434978-112.3901614 481.433826-103.83313 668.996544 25.671094" stroke="#00cfff" stroke-linecap="round" stroke-width="15" transform="matrix(1 0 0 -1 0 216)"/><path d="m0 177.426316c123.509837 0 248.76724 10.917032 425.367369-62.495722 387.652466-167.9726974 475.331805-71.4420522 734.632631-114.930594" stroke="#6f00ff" stroke-linecap="round" stroke-width="15"/><path d="m220.864141 152v-33.517839c5.34978 5.875637 12.705727 8.679919 21.666608 8.679919 20.195418 0 35.843524-14.422019 35.843524-36.9898068 0-22.567788-15.648106-36.9898063-35.843524-36.9898063-9.629604 0-17.386784 3.0713557-22.602819 9.3476045v-8.2793069h-19.92793v97.7492355zm18.055507-41.930683c-10.432071 0-18.322996-7.478084-18.322996-19.8970438 0-12.4189603 7.890925-19.8970438 18.322996-19.8970438 10.43207 0 18.322995 7.4780835 18.322995 19.8970438 0 12.4189598-7.890925 19.8970438-18.322995 19.8970438zm87.602643 17.092763c22.870308 0 39.454625-15.356779 39.454625-36.9898068 0-21.6330275-16.584317-36.9898063-39.454625-36.9898063-22.870309 0-39.58837 15.3567788-39.58837 36.9898063 0 21.6330278 16.718061 36.9898068 39.58837 36.9898068zm0-17.092763c-10.432071 0-18.45674-7.478084-18.45674-19.8970438 0-12.4189603 8.024669-19.8970438 18.45674-19.8970438 10.43207 0 18.322995 7.4780835 18.322995 19.8970438 0 12.4189598-7.890925 19.8970438-18.322995 19.8970438zm63.796123-65.833843c7.757181 0 12.973216-5.0744139 12.973216-12.0183486 0-6.409786-5.216035-11.2171254-12.973216-11.2171254s-12.973216 5.0744139-12.973216 11.617737 5.216035 11.617737 12.973216 11.617737zm10.432071 81.858308v-71.8430175h-20.864141v71.8430175zm40.257092 0v-35.5208972c0-13.2201835 7.222203-19.362895 17.25304-19.362895 9.22837 0 14.57815 5.3414883 14.57815 16.9592253v37.9245669h20.86414v-41.1294599c0-21.9001019-12.839471-31.7818552-29.825022-31.7818552-9.763348 0-18.189251 3.3384301-23.806519 9.4811417v-8.4128441h-19.92793v71.8430175zm100.977093 1.068298c6.419735 0 12.705726-1.46891 16.98555-4.540266l-5.617268-14.689092c-2.273657 1.735983-5.34978 2.670744-8.425904 2.670744-5.617268 0-8.960881-3.33843-8.960881-9.481142v-29.2446482h17.921763v-16.0244648h-17.921763v-17.4933741h-20.864141v17.4933741h-11.100793v16.0244648h11.100793v29.5117232c0 17.092762 9.897093 25.772681 26.882644 25.772681zm49.619207-1.068298v-36.055046c0-12.8195719 6.55348-18.8287462 15.78185-18.8287462 8.693392 0 13.641938 5.3414883 13.641938 16.9592253v37.9245669h20.864141v-36.055046c0-12.8195719 6.55348-18.8287462 15.915595-18.8287462 8.425903 0 13.641938 5.3414883 13.641938 16.9592253v37.9245669h20.864141v-41.1294599c0-21.9001019-12.304493-31.7818552-29.423788-31.7818552-10.833304 0-20.195419 4.4067278-25.946432 11.7512742-5.082291-7.8786952-13.641938-11.7512742-23.672775-11.7512742-9.22837 0-17.25304 3.2048929-22.60282 9.3476045v-8.2793069h-19.927929v71.8430175zm141.635418 1.068298c10.565815 0 18.055507-3.471968 21.934097-10.015291v8.946993h19.526696v-40.9959227c0-21.7665647-12.705727-31.9153924-34.639824-31.9153924-11.502026 0-23.137797 3.0713557-31.028722 8.6799184l7.489691 14.5555556c5.216036-4.1396534 13.106961-6.6768604 20.730397-6.6768604 11.234537 0 16.584317 5.2079511 16.584317 14.154944h-16.584317c-21.934097 0-30.894978 8.8134556-30.894978 21.4994905 0 12.41896 10.030837 21.766565 26.882643 21.766565zm5.216035-14.021407c-7.355947 0-11.769515-3.471968-11.769515-8.679919 0-4.8073391 3.076123-8.4128437 12.839471-8.4128437h14.310661v7.3445467c-2.407401 6.543323-8.425903 9.748216-15.380617 9.748216zm84.52652 14.021407c6.419736 0 12.705727-1.46891 16.985551-4.540266l-5.617269-14.689092c-2.273656 1.735983-5.34978 2.670744-8.425903 2.670744-5.617269 0-8.960881-3.33843-8.960881-9.481142v-29.2446482h17.921762v-16.0244648h-17.921762v-17.4933741h-20.864141v17.4933741h-11.100793v16.0244648h11.100793v29.5117232c0 17.092762 9.897093 25.772681 26.882643 25.772681zm39.187137-82.926606c7.75718 0 12.973216-5.0744139 12.973216-12.0183486 0-6.409786-5.216036-11.2171254-12.973216-11.2171254-7.757181 0-12.973216 5.0744139-12.973216 11.617737s5.216035 11.617737 12.973216 11.617737zm10.43207 81.858308v-71.8430175h-20.864141v71.8430175zm54.16652 1.068298c15.113128 0 27.016388-6.676861 32.232423-18.161061l-16.183084-8.813455c-3.87859 6.943934-9.629603 9.881753-16.183083 9.881753-10.565815 0-18.857974-7.344546-18.857974-19.8970438 0-12.5524975 8.292159-19.8970438 18.857974-19.8970438 6.55348 0 12.304493 3.0713557 16.183083 9.8817533l16.183084-8.6799185c-5.216035-11.7512742-17.119295-18.2945973-32.232423-18.2945973-23.405286 0-40.123348 15.3567788-40.123348 36.9898063 0 21.6330278 16.718062 36.9898068 40.123348 36.9898068z" fill="#2a2f35" fill-rule="nonzero"/></g></svg>